 <svg  version="1.0" xmlns="http://www.w3.org/2000/svg"  width="600.000000pt" height="600.000000pt" viewBox="0 0 600.000000 600.000000"  preserveAspectRatio="xMidYMid meet">  <g transform="translate(0.000000,600.000000) scale(0.100000,-0.100000)" fill="#024579" stroke="none"> <path d="M3098 5725 c-93 -26 -138 -74 -138 -147 0 -59 28 -115 81 -162 59 -54 48 -74 -22 -39 -60 29 -107 93 -118 162 -3 19 -11 36 -16 38 -15 5 -69 -48 -89 -87 -18 -35 -18 -37 2 -80 11 -25 35 -56 51 -70 17 -14 31 -32 31 -42 0 -9 -15 -40 -34 -69 -50 -75 -126 -233 -126 -261 0 -8 -4 -18 -10 -24 -5 -5 -14 -30 -19 -54 -5 -25 -14 -63 -20 -85 -37 -153 -43 -198 -44 -393 -2 -230 -3 -227 97 -276 105 -53 168 -66 313 -66 l134 0 -3 -66 c-2 -55 -7 -69 -23 -78 -11 -6 -22 -12 -25 -14 -3 -2 -7 -38 -10 -80 l-5 -77 -95 -12 c-52 -6 -111 -16 -130 -21 -72 -20 -126 -33 -171 -42 -26 -5 -55 -13 -65 -18 -11 -6 -26 -13 -34 -17 -53 -21 -146 -110 -156 -149 -3 -12 -38 -43 -87 -76 -99 -65 -326 -288 -385 -378 -23 -35 -42 -67 -42 -71 0 -5 -14 -33 -30 -64 -41 -77 -39 -104 15 -183 25 -36 45 -68 45 -71 0 -3 26 -38 57 -77 82 -104 240 -257 298 -290 77 -44 86 -54 73 -82 -14 -29 -62 -32 -141 -8 -96 28 -151 43 -232 59 -44 10 -105 23 -135 30 -78 19 -207 27 -280 19 -82 -9 -138 -50 -157 -114 -19 -63 0 -284 47 -550 7 -36 16 -92 20 -125 5 -33 13 -73 19 -88 6 -16 11 -42 11 -59 0 -16 7 -57 15 -91 8 -34 22 -98 30 -142 9 -44 23 -106 31 -137 21 -86 19 -101 -18 -120 -42 -21 -119 -55 -233 -103 -154 -64 -183 -75 -196 -75 -29 0 -136 -63 -152 -89 -21 -36 -12 -44 61 -60 83 -17 852 -27 927 -11 33 7 78 16 100 20 119 23 152 76 116 191 -45 144 -69 253 -82 369 -4 41 -12 102 -18 135 -5 33 -12 131 -16 217 -6 191 -16 180 170 203 206 26 426 30 558 11 247 -37 386 -107 490 -245 24 -31 48 -67 55 -81 6 -14 25 -47 41 -75 27 -45 43 -77 86 -170 8 -16 17 -46 20 -65 6 -34 4 -36 -37 -53 -24 -9 -51 -17 -61 -17 -11 0 -46 -7 -80 -15 -89 -21 -290 -45 -376 -45 -94 0 -320 27 -385 46 -26 8 -56 14 -66 14 -10 0 -35 6 -57 14 -22 8 -44 11 -50 8 -11 -8 0 -155 16 -232 5 -25 12 -75 15 -113 3 -37 11 -85 17 -107 13 -42 15 -44 94 -54 22 -3 60 -10 85 -15 126 -26 593 -21 720 8 25 5 70 15 100 21 126 25 155 32 164 41 6 5 21 9 34 9 13 0 38 6 55 14 18 8 60 24 95 35 34 12 70 25 80 30 9 5 78 39 152 75 252 125 404 232 604 426 131 127 332 388 407 531 43 81 110 221 129 269 12 30 28 70 36 88 8 18 14 39 14 46 0 8 7 27 15 42 8 16 15 41 15 56 0 15 4 29 9 33 6 3 13 27 16 53 3 26 11 58 16 72 6 13 14 56 19 95 5 38 14 90 19 115 6 25 10 158 11 295 0 244 -6 318 -41 475 -6 25 -14 68 -19 95 -5 28 -13 59 -18 70 -5 11 -17 47 -27 80 -28 98 -86 245 -116 295 -5 8 -12 22 -15 30 -11 29 -45 95 -64 125 -11 17 -24 39 -30 50 -42 79 -120 190 -214 303 -38 47 -130 144 -185 196 -30 28 -61 59 -70 69 -27 30 -49 21 -62 -25 -29 -109 -84 -221 -150 -305 l-49 -63 57 -62 c32 -35 72 -79 89 -98 18 -19 45 -53 60 -75 14 -22 29 -42 33 -45 7 -6 63 -88 74 -110 4 -8 16 -28 26 -45 11 -16 30 -50 42 -75 12 -25 41 -70 63 -100 23 -31 46 -64 53 -75 7 -11 31 -51 54 -90 41 -67 122 -226 168 -330 12 -27 26 -58 32 -67 5 -10 9 -23 9 -29 0 -6 6 -25 14 -42 18 -42 40 -108 61 -182 9 -33 24 -79 32 -103 27 -78 21 -147 -21 -232 -37 -76 -57 -111 -66 -120 -3 -3 -14 -18 -23 -33 -35 -55 -153 -171 -247 -242 -104 -80 -123 -98 -139 -135 -6 -14 -17 -34 -23 -45 -7 -11 -33 -51 -57 -90 -62 -99 -122 -175 -210 -268 -91 -96 -217 -207 -234 -207 -7 0 -19 15 -28 33 -28 58 -66 145 -99 227 -29 71 -67 157 -85 193 -21 40 -19 80 6 121 14 24 28 36 43 36 12 0 31 7 42 15 10 8 28 15 39 15 11 0 29 6 40 13 11 7 60 30 109 51 113 48 216 103 336 180 213 137 406 355 372 422 -25 52 -42 92 -48 117 -3 15 -10 30 -15 33 -5 3 -9 13 -9 22 0 9 -7 30 -15 46 -8 15 -15 36 -15 45 0 9 -7 29 -15 45 -8 15 -15 36 -15 45 0 9 -7 29 -15 45 -8 15 -15 33 -15 39 0 10 -86 186 -113 232 -45 75 -93 139 -148 199 -35 38 -68 76 -73 85 -43 78 -179 210 -261 253 -88 47 -105 50 -219 47 -104 -4 -111 -3 -114 16 -9 61 -12 65 -52 71 l-40 7 0 66 c0 67 27 264 39 290 4 8 16 19 27 25 116 62 185 138 209 231 20 77 19 124 -6 164 -20 33 -21 33 -79 29 -52 -4 -66 -10 -119 -51 -64 -51 -88 -48 -47 6 54 70 120 107 194 107 56 0 83 -17 117 -71 63 -98 8 -300 -112 -417 -35 -33 -41 -43 -29 -48 87 -33 286 188 317 351 4 22 12 58 18 80 13 50 13 265 0 325 -5 25 -12 61 -15 80 -5 33 -15 62 -52 155 -23 56 -77 132 -129 182 -46 44 -57 51 -140 92 -26 13 -55 27 -63 32 -8 5 -19 11 -25 13 -5 1 -26 9 -45 15 -37 14 -55 18 -195 51 -132 31 -195 40 -335 44 -87 3 -139 1 -172 -9z m1059 -2486 c19 -72 210 -390 277 -461 14 -15 26 -34 26 -42 0 -8 -26 -35 -57 -59 -57 -44 -212 -197 -252 -248 -11 -14 -39 -38 -63 -55 -24 -16 -45 -32 -48 -36 -8 -10 -144 -78 -158 -78 -7 0 -15 6 -18 14 -3 8 -31 32 -62 53 -31 21 -61 43 -65 48 -5 6 -6 60 -4 120 5 122 26 204 84 317 7 14 13 31 13 37 0 11 112 201 142 241 34 44 159 170 170 170 5 0 12 -9 15 -21z m-1559 -336 c-4 -230 -14 -325 -42 -383 -14 -30 -42 -38 -50 -13 -3 10 -16 29 -29 43 -13 14 -26 32 -30 40 -4 8 -11 22 -16 30 -5 8 -24 46 -43 83 -30 63 -90 137 -110 137 -27 0 2 31 65 70 81 50 171 131 212 191 15 21 32 39 37 39 5 0 8 -98 6 -237z"/> <path d="M2438 5166 c-20 -7 -55 -16 -78 -20 -22 -3 -49 -10 -58 -15 -9 -4 -42 -16 -72 -25 -258 -79 -602 -274 -802 -453 -58 -52 -206 -199 -249 -248 -81 -92 -218 -284 -268 -375 -49 -90 -130 -261 -156 -330 -9 -25 -23 -60 -31 -78 -8 -18 -14 -43 -14 -55 0 -13 -4 -27 -9 -32 -11 -12 -32 -100 -66 -270 -49 -243 -50 -580 -3 -825 6 -30 13 -75 17 -100 4 -25 12 -61 18 -80 6 -19 19 -62 28 -95 9 -33 23 -75 31 -93 8 -18 14 -37 14 -43 0 -6 7 -27 16 -47 8 -21 21 -50 28 -67 18 -41 114 -235 129 -260 38 -63 143 -222 155 -234 7 -8 21 -26 30 -40 9 -14 27 -37 39 -51 12 -14 31 -35 41 -48 106 -122 151 -149 117 -69 -8 20 -15 55 -15 79 0 23 -6 67 -14 97 -8 31 -19 88 -26 126 -6 39 -18 106 -25 150 -8 44 -19 114 -25 155 -6 41 -15 94 -21 117 -5 23 -9 104 -9 180 -1 90 -6 154 -15 183 -22 72 -42 158 -59 256 -22 124 -22 454 0 578 20 117 62 284 85 341 4 11 18 45 30 75 29 75 111 242 126 258 7 7 13 17 13 22 0 10 80 128 125 185 94 120 211 238 310 316 39 29 81 64 95 76 14 13 28 23 32 23 4 0 26 13 50 29 89 59 254 145 303 157 14 3 28 10 31 15 3 5 13 9 23 9 10 0 30 9 44 20 20 16 26 32 32 82 6 59 12 86 52 228 17 58 20 67 52 144 29 68 20 77 -51 52z"/> </g> </svg> 